Coordinates
version=1
nRows=9
nColumns=24
inDegrees=yes

Units are S.I. units (second, meters, Newtons, ...)
Angles are in degrees.

endheader
time	pelvis_tilt	pelvis_list	pelvis_rotation	pelvis_tx	pelvis_ty	pelvis_tz	hip_flexion_r	hip_adduction_r	hip_rotation_r	knee_angle_r	ankle_angle_r	subtalar_angle_r	mtp_angle_r	hip_flexion_l	hip_adduction_l	hip_rotation_l	knee_angle_l	ankle_angle_l	subtalar_angle_l	mtp_angle_l	lumbar_extension	lumbar_bending	lumbar_rotation
      0.01000000	     53.58772512	     -9.08821741	      2.55244354	      0.84634256	      1.07224732	     -0.23662930	     21.63714945	      0.32470922	     -7.34716847	    -11.56853198	     -4.35911029	     15.33171628	      0.00000000	     18.36828994	    -11.62473340	      1.29336490	    -68.36460171	      2.01386411	      1.11306815	      0.00000000	      0.00000000	      0.00000000	      0.00000000
      0.02000000	     53.60010990	     -9.09065836	      2.56083541	      0.84630682	      1.07222615	     -0.23668523	     21.61539000	      0.32266594	     -7.32754272	    -11.55279910	     -4.36649806	     15.32200545	      0.00000000	     18.35864609	    -11.61555460	      1.28457112	    -68.34936600	      2.01821200	      1.12909335	      0.00000000	      0.00000000	      0.00000000	      0.00000000
      0.03000000	     53.61353949	     -9.09295891	      2.56947941	      0.84628819	      1.07222167	     -0.23673360	     21.59332292	      0.32087137	     -7.30680937	    -11.53500982	     -4.37373555	     15.31237021	      0.00000000	     18.34775241	    -11.60742717	      1.27640581	    -68.33192265	      2.02199246	      1.14442434	      0.00000000	      0.00000000	      0.00000000	      0.00000000
      0.04000000	     53.62730396	     -9.09587325	      2.57856315	      0.84628286	      1.07223006	     -0.23678244	     21.57073768	      0.31963894	     -7.28608563	    -11.51549105	     -4.38039021	     15.30345759	      0.00000000	     18.33633083	    -11.60039918	      1.26878876	    -68.31270450	      2.02453310	      1.15783931	      0.00000000	      0.00000000	      0.00000000	      0.00000000
      0.05000000	     53.64046877	     -9.09989570	      2.58838983	      0.84628260	      1.07224031	     -0.23683417	     21.54785798	      0.31939599	     -7.26701920	    -11.49469163	     -4.38595885	     15.29609690	      0.00000000	     18.32504292	    -11.59479975	      1.26201440	    -68.29264665	      2.02489302	      1.16793518	      0.00000000	      0.00000000	      0.00000000	      0.00000000
      0.06000000	     53.65237235	     -9.10508228	      2.59920358	      0.84628476	      1.07224775	     -0.23688338	     21.52536432	      0.32028116	     -7.25145255	    -11.47317292	     -4.39010702	     15.29106346	      0.00000000	     18.31453459	    -11.59104621	      1.25680227	    -68.27308325	      2.02217517	      1.17353143	      0.00000000	      0.00000000	      0.00000000	      0.00000000
      0.07000000	     53.66285525	     -9.11109476	      2.61098446	      0.84629357	      1.07225833	     -0.23692453	     21.50412343	      0.32195443	     -7.24096131	    -11.45173626	     -4.39290594	     15.28889433	      0.00000000	     18.30550883	    -11.58905236	      1.25410595	    -68.25533663	      2.01592285	      1.17389082	      0.00000000	      0.00000000	      0.00000000	      0.00000000
      0.08000000	     53.67194935	     -9.11725642	      2.62339593	      0.84630824	      1.07227262	     -0.23695841	     21.48502749	      0.32380378	     -7.23636772	    -11.43145931	     -4.39496755	     15.28979429	      0.00000000	     18.29838041	    -11.58766981	      1.25493824	    -68.24012081	      2.00641887	      1.16878796	      0.00000000	      0.00000000	      0.00000000	      0.00000000
      0.09000000	     53.67947803	     -9.12267544	      2.63585001	      0.84632243	      1.07228061	     -0.23698949	     21.46911981	      0.32522939	     -7.23740016	    -11.41345355	     -4.39735547	     15.29359258	      0.00000000	     18.29289248	    -11.58466901	      1.26039374	    -68.22693773	      1.99475688	      1.15850547	      0.00000000	      0.00000000	      0.00000000	      0.00000000
